<mxfile host="65bd71144e">
    <diagram id="pzoCALew4R6Ci7tLglYs" name="Page-1">
        <mxGraphModel dx="1033" dy="637" grid="1" gridSize="10" guides="1" tooltips="1" connect="1" arrows="1" fold="1" page="1" pageScale="1" pageWidth="850" pageHeight="1100" math="0" shadow="0">
            <root>
                <mxCell id="0"/>
                <mxCell id="1" parent="0"/>
                <mxCell id="5" value="" style="shape=ext;double=1;rounded=0;whiteSpace=wrap;html=1;fillColor=#FFFFFF;strokeColor=#000000;fontColor=#333333;strokeWidth=0;shadow=1;fontFamily=lato;fontSource=https%3A%2F%2Ffonts.googleapis.com%2Fcss%3Ffamily%3Dlato;fontStyle=0;labelBackgroundColor=#46434A;" parent="1" vertex="1">
                    <mxGeometry x="90" width="980" height="670" as="geometry"/>
                </mxCell>
                <mxCell id="7" value="" style="shape=ext;double=1;rounded=0;whiteSpace=wrap;html=1;fillColor=none;shadow=1;strokeWidth=1;fontFamily=lato;fontSource=https%3A%2F%2Ffonts.googleapis.com%2Fcss%3Ffamily%3Dlato;" parent="1" vertex="1">
                    <mxGeometry x="90" y="5" width="980" height="50" as="geometry"/>
                </mxCell>
                <mxCell id="6" value="mukunda." style="text;strokeColor=default;fillColor=none;html=1;fontSize=24;fontStyle=1;verticalAlign=middle;align=center;fontColor=#020A78;" parent="1" vertex="1">
                    <mxGeometry x="580" y="10" width="100" height="40" as="geometry"/>
                </mxCell>
                <mxCell id="8" value="Home" style="text;strokeColor=default;fillColor=none;html=1;fontSize=15;fontStyle=0;verticalAlign=middle;align=center;fontColor=#020A78;fontFamily=Poppins;fontSource=https%3A%2F%2Ffonts.googleapis.com%2Fcss%3Ffamily%3DPoppins;" parent="1" vertex="1">
                    <mxGeometry x="110" y="20" width="60" height="20" as="geometry"/>
                </mxCell>
                <mxCell id="21" value="Post job" style="text;strokeColor=default;fillColor=none;html=1;fontSize=15;fontStyle=0;verticalAlign=middle;align=center;fontColor=#020A78;fontFamily=Poppins;fontSource=https%3A%2F%2Ffonts.googleapis.com%2Fcss%3Ffamily%3DPoppins;" parent="1" vertex="1">
                    <mxGeometry x="180" y="20" width="60" height="20" as="geometry"/>
                </mxCell>
                <mxCell id="22" value="ExploreJobs" style="text;strokeColor=default;fillColor=none;html=1;fontSize=15;fontStyle=0;verticalAlign=middle;align=center;fontColor=#020A78;fontFamily=Poppins;fontSource=https%3A%2F%2Ffonts.googleapis.com%2Fcss%3Ffamily%3DPoppins;" parent="1" vertex="1">
                    <mxGeometry x="270" y="20" width="60" height="20" as="geometry"/>
                </mxCell>
                <mxCell id="23" value="&lt;b&gt;&lt;font style=&quot;font-size: 15px;&quot; data-font-src=&quot;https://fonts.googleapis.com/css?family=Poppins&quot; face=&quot;Poppins&quot;&gt;Sign Up&amp;nbsp;&lt;/font&gt;&lt;/b&gt;" style="rounded=1;fillColor=#0057D8;align=center;strokeColor=none;html=1;fontColor=#ffffff;fontSize=12;sketch=0;shadow=1;strokeWidth=1;fontFamily=lato;fontSource=https%3A%2F%2Ffonts.googleapis.com%2Fcss%3Ffamily%3Dlato;" parent="1" vertex="1">
                    <mxGeometry x="984" y="12" width="86" height="33" as="geometry"/>
                </mxCell>
                <mxCell id="25" value="log in" style="text;html=1;strokeColor=none;fillColor=none;align=center;verticalAlign=middle;whiteSpace=wrap;rounded=0;shadow=1;sketch=0;strokeWidth=1;fontFamily=Poppins;fontSource=https%3A%2F%2Ffonts.googleapis.com%2Fcss%3Ffamily%3DPoppins;fontSize=15;fontColor=#020A78;backgroundOutline=1;" parent="1" vertex="1">
                    <mxGeometry x="924" y="13.5" width="60" height="30" as="geometry"/>
                </mxCell>
                <mxCell id="26" value="About Us" style="text;strokeColor=default;fillColor=none;html=1;fontSize=15;fontStyle=0;verticalAlign=middle;align=center;fontColor=#020A78;fontFamily=Poppins;fontSource=https%3A%2F%2Ffonts.googleapis.com%2Fcss%3Ffamily%3DPoppins;" parent="1" vertex="1">
                    <mxGeometry x="360" y="20" width="60" height="20" as="geometry"/>
                </mxCell>
                <mxCell id="30" value="A career &#10;is a series of ups and downs, ofÂ &#10;comebacks." style="text;strokeColor=none;fillColor=none;align=left;verticalAlign=middle;rounded=0;shadow=1;sketch=0;strokeWidth=1;fontFamily=Poppins;fontSource=https%3A%2F%2Ffonts.googleapis.com%2Fcss%3Ffamily%3DPoppins;fontSize=38;fontColor=#020A78;fontStyle=1" parent="1" vertex="1">
                    <mxGeometry x="190" y="140" width="550" height="130" as="geometry"/>
                </mxCell>
                <mxCell id="33" value="Mukunda is a one-stop-center for all freelance &lt;br style=&quot;font-size: 21px;&quot;&gt;and full-time Tech jobs in the country" style="text;strokeColor=none;fillColor=none;html=1;fontSize=21;fontStyle=0;verticalAlign=middle;align=left;rounded=1;shadow=1;labelBackgroundColor=none;sketch=0;strokeWidth=1;fontFamily=Poppins;fontSource=https%3A%2F%2Ffonts.googleapis.com%2Fcss%3Ffamily%3DPoppins;fontColor=#020A78;" parent="1" vertex="1">
                    <mxGeometry x="190" y="300" width="620" height="70" as="geometry"/>
                </mxCell>
                <mxCell id="35" value="" style="rounded=1;whiteSpace=wrap;html=1;shadow=1;labelBackgroundColor=none;sketch=0;strokeColor=#000000;strokeWidth=1;fontFamily=Poppins;fontSource=https%3A%2F%2Ffonts.googleapis.com%2Fcss%3Ffamily%3DPoppins;fontSize=21;fontColor=#020A78;fillColor=#FFFFFF;" parent="1" vertex="1">
                    <mxGeometry x="190" y="410" width="780" height="60" as="geometry"/>
                </mxCell>
                <mxCell id="38" value="search position" style="text;html=1;strokeColor=none;fillColor=none;align=center;verticalAlign=middle;whiteSpace=wrap;rounded=0;shadow=1;labelBackgroundColor=none;sketch=0;strokeWidth=1;fontFamily=Poppins;fontSource=https%3A%2F%2Ffonts.googleapis.com%2Fcss%3Ffamily%3DPoppins;fontSize=17;fontColor=#020A78;" parent="1" vertex="1">
                    <mxGeometry x="240" y="425" width="170" height="30" as="geometry"/>
                </mxCell>
                <mxCell id="39" value="" style="rounded=0;whiteSpace=wrap;html=1;shadow=1;labelBackgroundColor=none;sketch=0;strokeColor=#000000;strokeWidth=1;fontFamily=Poppins;fontSource=https%3A%2F%2Ffonts.googleapis.com%2Fcss%3Ffamily%3DPoppins;fontSize=21;fontColor=#020A78;fillColor=#FFFFFF;" parent="1" vertex="1">
                    <mxGeometry x="580" y="410" width="210" height="60" as="geometry"/>
                </mxCell>
                <mxCell id="40" value="search location" style="text;html=1;strokeColor=none;fillColor=none;align=center;verticalAlign=middle;whiteSpace=wrap;rounded=0;shadow=1;labelBackgroundColor=none;sketch=0;strokeWidth=1;fontFamily=Poppins;fontSource=https%3A%2F%2Ffonts.googleapis.com%2Fcss%3Ffamily%3DPoppins;fontSize=18;fontColor=#020A78;" parent="1" vertex="1">
                    <mxGeometry x="610" y="425" width="180" height="30" as="geometry"/>
                </mxCell>
                <mxCell id="41" value="" style="html=1;verticalLabelPosition=bottom;align=center;labelBackgroundColor=#ffffff;verticalAlign=top;strokeWidth=2;strokeColor=#0080F0;shadow=0;dashed=0;shape=mxgraph.ios7.icons.location;rounded=1;sketch=0;fontFamily=Poppins;fontSource=https%3A%2F%2Ffonts.googleapis.com%2Fcss%3Ffamily%3DPoppins;fontSize=21;fontColor=#020A78;fillColor=#FFFFFF;" parent="1" vertex="1">
                    <mxGeometry x="588" y="425" width="24" height="30" as="geometry"/>
                </mxCell>
                <mxCell id="42" value="Search" style="rounded=1;fillColor=#0057D8;align=center;strokeColor=none;html=1;fontColor=#ffffff;fontSize=12;sketch=0;shadow=1;labelBackgroundColor=none;strokeWidth=1;fontFamily=Poppins;fontSource=https%3A%2F%2Ffonts.googleapis.com%2Fcss%3Ffamily%3DPoppins;" parent="1" vertex="1">
                    <mxGeometry x="855" y="424" width="80" height="33" as="geometry"/>
                </mxCell>
                <mxCell id="34" value="" style="sketch=0;html=1;aspect=fixed;strokeColor=none;shadow=0;align=center;verticalAlign=top;fillColor=#3B8DF1;shape=mxgraph.gcp2.search;rounded=1;labelBackgroundColor=none;strokeWidth=1;fontFamily=Poppins;fontSource=https%3A%2F%2Ffonts.googleapis.com%2Fcss%3Ffamily%3DPoppins;fontSize=21;fontColor=#020A78;" parent="1" vertex="1">
                    <mxGeometry x="220" y="430.40000000000003" width="20" height="20.2" as="geometry"/>
                </mxCell>
            </root>
        </mxGraphModel>
    </diagram>
</mxfile>